<?xml version="1.0" encoding="utf-8"?>
<!-- Generator: Adobe Illustrator 18.1.1, SVG Export Plug-In . SVG Version: 6.00 Build 0)  -->
<svg version="1.1" id="Layer_1" xmlns="http://www.w3.org/2000/svg" xmlns:xlink="http://www.w3.org/1999/xlink" x="0px" y="0px"
	 viewBox="0 0 316.1 73.6" enable-background="new 0 0 316.1 73.6" xml:space="preserve">
<polygon fill-rule="evenodd" clip-rule="evenodd" fill="#2B2A29" points="184.2,0 184.2,10.6 183.3,10.6 183.2,10.1 183.1,9.7 
	183,9.3 182.9,8.8 182.8,8.4 182.6,8 182.5,7.6 182.3,7.2 182.1,6.8 181.9,6.5 181.7,6.1 181.4,5.7 181.2,5.4 180.9,5 180.6,4.7 
	180.3,4.4 180,4.1 179.7,3.8 179.4,3.5 179.1,3.3 178.7,3.1 178.4,2.9 178.1,2.7 177.7,2.5 177.3,2.4 176.9,2.2 176.5,2.1 176.2,2 
	175.8,2 175.4,1.9 175,1.9 174.6,1.9 174.3,1.9 174,1.9 173.7,1.9 173.4,2 173.1,2 172.9,2.1 172.6,2.2 172.3,2.2 172.1,2.3 
	171.8,2.4 171.6,2.5 171.4,2.7 171.2,2.8 170.9,3 170.7,3.1 170.5,3.3 170.3,3.4 170.1,3.6 170,3.8 169.8,4 169.7,4.2 169.5,4.4 
	169.4,4.6 169.3,4.8 169.2,5 169.1,5.2 169,5.4 169,5.7 168.9,5.9 168.9,6.1 168.9,6.3 168.9,6.6 168.9,6.9 168.9,7.3 169,7.6 
	169.1,8 169.3,8.3 169.4,8.7 169.6,9 169.9,9.3 170,9.5 170.2,9.6 170.4,9.8 170.6,10 171.1,10.4 171.7,10.9 172.4,11.3 173.3,11.9 
	174.2,12.5 175.2,13 176,13.4 176.6,13.8 177.3,14.2 177.9,14.6 178.5,15 179.2,15.4 179.8,15.8 180.4,16.1 181,16.5 181.5,16.9 
	182,17.3 182.6,17.8 183,18.2 183.5,18.7 184,19.2 184.4,19.7 184.6,20 184.8,20.3 185,20.5 185.1,20.8 185.3,21.1 185.4,21.4 
	185.6,21.7 185.7,22 185.8,22.3 185.9,22.6 185.9,22.9 186,23.2 186,23.6 186,23.9 186.1,24.2 186.1,24.5 186.1,25.1 186,25.5 
	186,26 185.9,26.4 185.8,26.9 185.6,27.3 185.5,27.7 185.3,28.1 185.1,28.5 184.8,28.9 184.6,29.3 184.3,29.6 184,30 183.7,30.3 
	183.3,30.6 182.9,30.9 182.6,31.2 182.1,31.5 181.7,31.8 181.3,32 180.9,32.2 180.5,32.4 180.1,32.6 179.6,32.8 179.2,32.9 
	178.8,33 178.3,33.1 177.9,33.2 177.4,33.3 177,33.3 176.5,33.4 176,33.4 175.7,33.4 175.4,33.4 175,33.3 174.6,33.3 173.9,33.2 
	173,33 172.1,32.8 171.2,32.6 170.2,32.3 169.1,32 168.7,31.9 168.3,31.8 168,31.7 167.6,31.7 167.5,31.7 167.3,31.7 167.2,31.8 
	167,31.8 166.9,31.9 166.8,31.9 166.7,32 166.6,32.1 166.4,32.2 166.3,32.3 166.2,32.5 166.1,32.6 165.9,33 165.7,33.4 164.8,33.4 
	164.8,22.6 165.7,22.6 165.8,23.2 166,23.7 166.1,24.2 166.3,24.8 166.5,25.3 166.7,25.7 166.9,26.2 167.1,26.6 167.3,27 
	167.6,27.4 167.8,27.8 168.1,28.2 168.4,28.5 168.7,28.8 169,29.1 169.3,29.4 169.6,29.7 170,29.9 170.3,30.1 170.6,30.3 171,30.5 
	171.3,30.7 171.7,30.9 172,31 172.4,31.1 172.8,31.2 173.2,31.3 173.5,31.4 173.9,31.5 174.3,31.5 174.7,31.5 175.1,31.6 
	175.4,31.5 175.8,31.5 176.1,31.5 176.4,31.5 176.7,31.4 177,31.3 177.3,31.3 177.6,31.2 177.9,31.1 178.2,31 178.4,30.8 
	178.7,30.7 178.9,30.6 179.2,30.4 179.4,30.3 179.6,30.1 179.8,29.9 180,29.7 180.2,29.5 180.4,29.3 180.6,29.1 180.7,28.9 
	180.8,28.7 181,28.5 181.1,28.3 181.1,28 181.2,27.8 181.3,27.5 181.3,27.3 181.3,27 181.4,26.7 181.4,26.5 181.4,26.2 181.3,26 
	181.3,25.8 181.3,25.5 181.2,25.3 181.2,25.1 181.1,24.8 181,24.6 180.9,24.4 180.8,24.1 180.6,23.9 180.5,23.7 180.2,23.2 
	179.8,22.7 179.6,22.5 179.4,22.3 179.1,22 178.8,21.8 178.5,21.5 178.2,21.2 177.8,20.9 177.4,20.7 176.5,20.1 175.6,19.4 
	174.5,18.8 173.3,18.1 172.1,17.4 171,16.8 170,16.1 169.1,15.5 168.7,15.2 168.3,14.9 167.9,14.6 167.6,14.3 167.3,14.1 167,13.8 
	166.7,13.6 166.5,13.3 166.2,13 166,12.8 165.9,12.5 165.7,12.2 165.5,12 165.4,11.6 165.3,11.3 165.1,11 165,10.7 164.9,10.4 
	164.8,10.1 164.8,9.7 164.7,9.4 164.7,9 164.7,8.7 164.7,8.3 164.7,7.8 164.7,7.4 164.8,7 164.8,6.6 164.9,6.2 165.1,5.8 165.2,5.4 
	165.3,5 165.5,4.7 165.7,4.3 165.9,4 166.2,3.7 166.4,3.3 166.7,3 167,2.7 167.3,2.4 167.7,2.1 168,1.8 168.4,1.6 168.8,1.3 
	169.1,1.1 169.5,0.9 169.9,0.8 170.3,0.6 170.7,0.4 171.2,0.3 171.6,0.2 172,0.1 172.5,0.1 173,0 173.4,0 173.9,0 174.5,0 
	175.1,0.1 175.8,0.2 176.5,0.3 177.3,0.5 178.1,0.8 178.9,1 179.8,1.4 180.3,1.5 180.7,1.6 180.9,1.7 181.1,1.7 181.3,1.7 
	181.4,1.7 181.5,1.7 181.7,1.7 181.8,1.6 182,1.6 182.1,1.6 182.2,1.5 182.4,1.4 182.5,1.3 182.6,1.2 182.7,1 182.8,0.9 182.9,0.7 
	183.1,0.4 183.3,0 "/>
<polygon fill-rule="evenodd" clip-rule="evenodd" fill="#2B2A29" points="189.6,13.8 196.2,11.3 197,11.3 197,28.3 197.1,28.9 
	197.1,29.4 197.1,29.9 197.2,30.3 197.3,30.8 197.4,31.1 197.5,31.2 197.6,31.4 197.7,31.5 197.7,31.6 197.8,31.7 197.9,31.8 
	198,31.9 198.2,32 198.5,32.2 198.8,32.3 199.1,32.4 199.5,32.5 199.9,32.6 200.4,32.6 200.4,33.4 189.6,33.4 189.6,32.6 190,32.6 
	190.5,32.5 190.8,32.5 191.2,32.4 191.5,32.3 191.8,32.2 192.1,32.1 192.4,31.9 192.4,31.8 192.6,31.7 192.7,31.6 192.8,31.4 
	192.8,31.2 192.9,31.1 193,30.9 193.1,30.6 193.1,30.4 193.2,30.1 193.2,29.9 193.3,29.6 193.3,29 193.3,28.3 193.3,18 193.3,17.5 
	193.3,17 193.3,16.7 193.2,16.3 193.1,16 193,15.7 192.9,15.5 192.8,15.2 192.6,15 192.5,14.9 192.3,14.7 192.1,14.6 191.8,14.5 
	191.6,14.4 191.3,14.4 190.9,14.4 190.7,14.4 190.4,14.4 190.1,14.5 189.9,14.6 "/>
<path fill-rule="evenodd" clip-rule="evenodd" fill="#2B2A29" d="M218.3,12.2h5.1h0.2l0.2,0l0.1,0.1l0.1,0.1l0.1,0.1l0.1,0.1l0,0.1
	l0,0.2v0.8l0,0.1l0,0.1l0,0.1l-0.1,0.1l-0.1,0l-0.1,0.1l-0.2,0h-0.2h-3.4l0.3,0.4l0.2,0.5l0.2,0.5l0.2,0.5l0.1,0.5l0.1,0.5l0,0.5
	l0,0.5l0,0.4l0,0.4l0,0.4l-0.1,0.4l-0.1,0.4l-0.1,0.3L221,21l-0.1,0.3l-0.2,0.3l-0.1,0.3l-0.2,0.3l-0.2,0.3l-0.2,0.3l-0.2,0.3
	l-0.2,0.3l-0.3,0.3l-0.3,0.2l-0.3,0.2l-0.3,0.2l-0.3,0.2l-0.3,0.2l-0.3,0.2l-0.4,0.1l-0.3,0.1l-0.4,0.1l-0.4,0.1l-0.4,0.1l-0.4,0.1
	l-0.4,0.1l-0.4,0l-0.4,0h-0.4h-0.4l-0.4,0H212l-0.3,0l-0.4-0.1l-0.3-0.1l-0.4-0.1l-0.4-0.1l-0.4,0.4l-0.4,0.4l-0.3,0.4l-0.3,0.4
	l-0.1,0.2l-0.1,0.2l-0.1,0.2l-0.1,0.1l0,0.2l0,0.1l0,0.2v0.1l0,0.2l0,0.2l0.1,0.1l0.1,0.2l0.1,0.1l0.2,0.1l0.2,0.1l0.2,0l0.3,0.1
	l0.3,0.1l0.4,0l0.4,0l0.5,0l0.5,0l0.6,0h0.6h3.9h0.5l0.5,0l0.5,0h0.4l0.4,0.1l0.4,0l0.4,0.1l0.4,0.1l0.3,0.1l0.3,0.1l0.3,0.1
	l0.3,0.1l0.3,0.1l0.3,0.1l0.2,0.2l0.2,0.2l0.2,0.2l0.2,0.2l0.2,0.2l0.2,0.2l0.1,0.2l0.1,0.2l0.1,0.2l0.1,0.2l0.1,0.2l0.1,0.2
	l0.1,0.2l0,0.2l0,0.2l0,0.2V34v0.2v0.4l0,0.5l-0.1,0.4L224,36l-0.1,0.4l-0.2,0.4l-0.2,0.4l-0.2,0.4L223,38l-0.3,0.3l-0.3,0.4
	l-0.3,0.3l-0.4,0.3l-0.4,0.3l-0.4,0.3l-0.5,0.3l-0.5,0.3l-0.5,0.3l-0.5,0.3l-0.5,0.2l-0.5,0.2l-0.5,0.2l-0.5,0.2l-0.5,0.1l-0.5,0.1
	l-0.6,0.1l-0.5,0.1l-0.5,0.1l-0.5,0l-0.6,0l-0.5,0l-0.6,0l-0.4,0h-0.4l-0.4,0l-0.4,0l-0.4,0l-0.4,0l-0.4-0.1l-0.4-0.1l-0.4-0.1
	l-0.4-0.1l-0.4-0.1L207,42l-0.4-0.1l-0.3-0.1l-0.4-0.2l-0.3-0.1l-0.3-0.2L205,41l-0.3-0.2l-0.3-0.2l-0.2-0.2l-0.2-0.2l-0.2-0.2
	l-0.2-0.2l-0.2-0.2l-0.1-0.2l-0.1-0.2l-0.1-0.2L203,39l0-0.2l0-0.2v-0.2v-0.2l0-0.2l0-0.2l0.1-0.3l0.1-0.2l0.1-0.3l0.1-0.3l0.2-0.3
	l0.2-0.3l0.3-0.4l0.4-0.4l0.4-0.5l0.5-0.5l0.6-0.6l0.6-0.6l0.7-0.7l-0.3-0.1l-0.3-0.1l-0.3-0.1l-0.2-0.1l-0.2-0.1l-0.2-0.1l-0.2-0.1
	l-0.1-0.1l-0.1-0.1l-0.1-0.2l-0.1-0.1l-0.1-0.1l-0.1-0.2l0-0.2l0-0.2v-0.2l0-0.3l0-0.3l0.1-0.3l0.1-0.3l0.1-0.3l0.1-0.3l0.2-0.3
	l0.2-0.3l0.2-0.3l0.3-0.3l0.3-0.3l0.3-0.3l0.4-0.3l0.4-0.4l0.4-0.3l0.5-0.4l-0.5-0.3l-0.5-0.3l-0.4-0.3l-0.4-0.3l-0.4-0.3l-0.3-0.3
	l-0.3-0.4l-0.3-0.4l-0.2-0.4l-0.2-0.4l-0.2-0.4l-0.1-0.5L205,20l-0.1-0.5l0-0.5l0-0.5l0-0.4l0-0.4l0-0.4l0-0.4l0.1-0.3l0.1-0.4
	l0.1-0.3l0.1-0.3l0.1-0.3l0.2-0.3l0.2-0.3l0.2-0.3l0.2-0.3l0.3-0.3l0.3-0.3l0.3-0.3l0.3-0.3l0.3-0.3l0.3-0.2l0.3-0.2l0.3-0.2
	l0.4-0.2l0.4-0.2l0.4-0.1l0.4-0.1l0.4-0.1l0.4-0.1l0.4-0.1l0.4,0l0.5,0h0.4l0.5,0h0.3l0.3,0h0.3l0.3,0l0.3,0l0.3,0l0.3,0.1l0.3,0.1
	l0.3,0.1l0.3,0.1l0.3,0.1l0.3,0.1l0.3,0.1l0.3,0.2l0.3,0.1L218.3,12.2L218.3,12.2z M208.8,16.5v0.4v0.4l0,0.4l0,0.4l0,0.4l0,0.3
	l0.1,0.4l0.1,0.3l0.1,0.4l0.1,0.3l0.1,0.3l0.1,0.3l0.1,0.3l0.1,0.3l0.1,0.3l0.2,0.3l0.2,0.3l0.2,0.3l0.2,0.3l0.2,0.2l0.2,0.2
	l0.2,0.2l0.2,0.2l0.2,0.1l0.2,0.1l0.2,0.1l0.2,0.1l0.3,0.1l0.3,0l0.2,0l0.3,0h0.3h0.2l0.2,0h0.2l0.2,0l0.1,0l0.2-0.1l0.2-0.1
	l0.1-0.1l0.2-0.1l0.1-0.1l0.1-0.1l0.1-0.1l0.1-0.1l0.1-0.2l0.1-0.2l0.1-0.2l0.2-0.4l0.2-0.4l0.1-0.4l0.1-0.4l0.1-0.5l0.1-0.5l0-0.5
	l0-0.5l0-0.3v-0.3l0-0.3l0-0.3l0-0.3l0-0.3l-0.1-0.3l-0.1-0.3l-0.1-0.3l-0.1-0.3l-0.1-0.3l-0.1-0.3l-0.1-0.3l-0.1-0.3l-0.1-0.3
	l-0.1-0.3l-0.2-0.3l-0.1-0.3l-0.2-0.2l-0.2-0.2l-0.2-0.2l-0.2-0.2l-0.2-0.2l-0.2-0.1l-0.2-0.1l-0.2-0.1l-0.2-0.1l-0.2-0.1l-0.2,0
	l-0.3,0l-0.3,0h-0.3h-0.2H212l-0.2,0l-0.2,0l-0.2,0l-0.2,0.1l-0.2,0l-0.2,0.1l-0.1,0.1l-0.2,0.1l-0.1,0.1l-0.1,0.1l-0.1,0.1
	l-0.1,0.1l-0.1,0.1l-0.1,0.1l-0.2,0.3l-0.2,0.3l-0.2,0.4l-0.1,0.4l-0.1,0.4l-0.1,0.4l0,0.4V16.5L208.8,16.5z M208.6,32.6l-0.3,0.3
	l-0.2,0.3l-0.2,0.3l-0.2,0.3l-0.2,0.3l-0.2,0.2l-0.1,0.3l-0.1,0.2l-0.1,0.3l-0.1,0.2l-0.1,0.2l-0.1,0.2l0,0.2l0,0.2l0,0.2v0.2v0.2
	l0,0.2l0,0.2l0.1,0.2l0.1,0.2l0.1,0.1l0.1,0.2l0.1,0.2l0.2,0.1l0.2,0.2l0.2,0.1l0.2,0.1l0.2,0.1l0.2,0.1l0.3,0.1l0.3,0.1l0.6,0.2
	l0.6,0.1l0.7,0.1l0.7,0.1l0.7,0.1l0.7,0.1l0.8,0l0.7,0h0.4l0.4,0h0.4l0.4,0l0.4,0l0.4-0.1l0.4,0l0.4-0.1l0.4-0.1l0.3-0.1l0.3-0.1
	l0.4-0.1l0.3-0.1l0.3-0.1l0.3-0.1l0.3-0.2l0.3-0.1l0.3-0.2l0.3-0.2l0.2-0.2l0.2-0.2l0.2-0.2l0.2-0.2l0.1-0.2l0.1-0.2l0.1-0.2
	l0.1-0.2l0.1-0.2l0-0.2l0-0.2l0-0.2v-0.2v-0.3l0-0.3l-0.1-0.2l-0.1-0.2l-0.2-0.2l-0.2-0.2l-0.2-0.2l-0.3-0.1l-0.2-0.1l-0.2-0.1
	l-0.2-0.1l-0.3,0l-0.6-0.1l-0.8-0.1l-0.4,0l-0.5,0l-0.5,0l-0.5,0l-0.6,0h-0.6h-0.6h-0.6h-0.7l-0.6,0h-0.6l-0.5,0h-0.5l-0.5,0l-0.4,0
	h-0.4l-0.7-0.1l-0.6,0l-0.5-0.1L208.6,32.6L208.6,32.6z M215.3,8.9h-4.3l-4.4-7.5h0.7l6.3,4.8l5.3-4.8h0.7L215.3,8.9z"/>
<path fill-rule="evenodd" clip-rule="evenodd" fill="#2B2A29" d="M249.3,21.3l0,0.6l0,0.6l0,0.6l-0.1,0.6l-0.1,0.6l-0.1,0.6
	l-0.2,0.5l-0.2,0.5l-0.2,0.5l-0.3,0.5l-0.3,0.5l-0.3,0.5l-0.3,0.5l-0.3,0.5l-0.4,0.4l-0.4,0.5l-0.4,0.5l-0.4,0.4l-0.4,0.4l-0.5,0.3
	l-0.5,0.3l-0.5,0.3l-0.5,0.3l-0.5,0.2l-0.5,0.2l-0.5,0.2l-0.5,0.2l-0.6,0.1l-0.5,0.1l-0.6,0.1l-0.6,0h-0.6h-0.5l-0.5,0l-0.5,0
	l-0.5-0.1l-0.5-0.1l-0.5-0.1l-0.5-0.2l-0.5-0.2l-0.4-0.2l-0.4-0.2l-0.4-0.2l-0.4-0.3l-0.4-0.3l-0.4-0.3l-0.4-0.4l-0.4-0.4l-0.4-0.4
	l-0.4-0.4l-0.3-0.4l-0.3-0.4l-0.3-0.5l-0.2-0.4l-0.2-0.5l-0.2-0.5l-0.2-0.5l-0.2-0.5l-0.1-0.5l-0.1-0.5l-0.1-0.5l0-0.5l0-0.5l0-0.6
	l0-0.5l0-0.6l0-0.5l0.1-0.5l0.1-0.5l0.1-0.5l0.2-0.5l0.2-0.5l0.2-0.5l0.2-0.5l0.3-0.5l0.3-0.5l0.3-0.5l0.3-0.5l0.4-0.5l0.4-0.5
	l0.4-0.5l0.4-0.4l0.4-0.4l0.4-0.3l0.5-0.3l0.5-0.3l0.5-0.3l0.5-0.2l0.5-0.2l0.5-0.2l0.5-0.2l0.5-0.1l0.6-0.1l0.6-0.1l0.6,0l0.6,0
	l0.5,0l0.5,0l0.5,0.1l0.5,0.1l0.5,0.1l0.5,0.1l0.5,0.2l0.5,0.2l0.4,0.2l0.5,0.2l0.4,0.3l0.4,0.3l0.4,0.3l0.4,0.3l0.4,0.4l0.4,0.4
	l0.4,0.4l0.3,0.4l0.3,0.4l0.3,0.4l0.3,0.4l0.2,0.4l0.2,0.4l0.2,0.5l0.2,0.5l0.1,0.5l0.1,0.5l0.1,0.5l0.1,0.5l0,0.5l0,0.5L249.3,21.3
	L249.3,21.3z M245,23.2v-0.5l0-0.5l0-0.5l0-0.5l-0.1-0.5l-0.1-0.5l-0.1-0.5l-0.1-0.5l-0.1-0.5l-0.1-0.5l-0.2-0.4l-0.2-0.4l-0.2-0.4
	l-0.2-0.4l-0.2-0.4l-0.2-0.4l-0.3-0.4l-0.2-0.4l-0.3-0.3l-0.3-0.3l-0.3-0.3l-0.3-0.2l-0.3-0.3l-0.3-0.2l-0.3-0.2l-0.4-0.2l-0.3-0.1
	l-0.4-0.1l-0.4-0.1l-0.4,0l-0.4,0l-0.4,0l-0.3,0l-0.3,0l-0.3,0l-0.3,0.1l-0.3,0.1l-0.3,0.1l-0.3,0.1l-0.3,0.1l-0.3,0.1l-0.2,0.2
	l-0.3,0.2l-0.2,0.2l-0.2,0.2l-0.2,0.2l-0.2,0.2l-0.2,0.3l-0.2,0.3l-0.2,0.3l-0.2,0.3l-0.1,0.3l-0.1,0.3l-0.1,0.4l-0.1,0.4l-0.1,0.4
	l-0.1,0.4l-0.1,0.4l-0.1,0.4l0,0.4l0,0.5l0,0.5l0,0.4v0.5v0.5l0,0.5l0,0.5l0,0.5l0.1,0.5l0.1,0.5l0.1,0.5l0.1,0.5l0.1,0.5l0.1,0.5
	l0.2,0.5l0.2,0.4l0.2,0.5l0.2,0.4l0.2,0.4l0.3,0.4l0.2,0.4l0.3,0.4l0.3,0.3l0.3,0.3l0.3,0.3l0.3,0.3l0.3,0.2L236,31l0.3,0.2l0.3,0.2
	l0.4,0.1l0.3,0.1l0.4,0.1l0.4,0l0.4,0l0.4,0l0.3,0l0.3,0l0.3,0l0.3-0.1l0.3-0.1l0.3-0.1l0.3-0.1l0.3-0.1l0.3-0.1l0.3-0.2l0.2-0.2
	l0.3-0.2l0.2-0.2l0.2-0.2l0.2-0.3l0.2-0.3l0.2-0.3l0.2-0.3l0.2-0.3l0.2-0.3l0.2-0.3l0.1-0.4l0.1-0.3l0.1-0.4l0.1-0.4l0.1-0.4l0-0.4
	l0.1-0.4l0-0.5l0-0.5l0-0.5V23.2z"/>
<polygon fill-rule="evenodd" clip-rule="evenodd" fill="#2B2A29" points="260.2,11.3 260.2,16 260.6,15.4 260.9,14.9 261.3,14.4 
	261.6,13.9 262,13.5 262.4,13.2 262.8,12.8 263.2,12.5 263.5,12.2 263.9,12 264.3,11.8 264.7,11.6 265.1,11.5 265.5,11.4 
	265.9,11.4 266.3,11.3 266.5,11.4 266.8,11.4 267.1,11.5 267.3,11.6 267.6,11.7 267.8,11.8 268,12 268.3,12.2 268.5,12.4 
	268.7,12.6 268.8,12.8 268.9,13 269,13.3 269.1,13.5 269.1,13.8 269.1,14 269.1,14.2 269.1,14.4 269,14.6 269,14.7 268.9,14.9 
	268.8,15.1 268.7,15.2 268.5,15.4 268.4,15.5 268.2,15.7 268,15.8 267.8,15.9 267.6,15.9 267.4,16 267.3,16 267.1,16 266.8,16 
	266.6,16 266.3,15.9 266.1,15.8 265.8,15.7 265.6,15.5 265.3,15.3 265,15.1 264.8,15 264.6,14.8 264.4,14.7 264.3,14.6 264.1,14.5 
	264,14.5 263.9,14.4 263.7,14.4 263.5,14.4 263.3,14.5 263.1,14.5 262.9,14.6 262.6,14.7 262.4,14.9 262.2,15 262,15.2 261.8,15.4 
	261.6,15.6 261.3,15.9 261.1,16.2 260.9,16.5 260.7,16.8 260.5,17.2 260.2,17.6 260.2,28.2 260.2,28.9 260.3,29.5 260.3,30 
	260.4,30.5 260.5,30.7 260.6,30.9 260.6,31.1 260.7,31.3 260.8,31.4 260.9,31.5 261,31.7 261.1,31.8 261.2,31.9 261.3,32 
	261.5,32.1 261.6,32.1 261.8,32.2 262,32.3 262.2,32.3 262.4,32.4 262.8,32.5 263.3,32.5 263.8,32.6 264.4,32.6 264.4,33.4 
	252.7,33.4 252.7,32.6 253.2,32.6 253.6,32.5 254.1,32.5 254.4,32.4 254.7,32.3 255,32.1 255.2,32 255.3,31.9 255.4,31.8 
	255.5,31.7 255.6,31.6 255.7,31.5 255.8,31.3 255.9,31.2 255.9,31 256,30.9 256.1,30.7 256.1,30.4 256.2,30 256.3,29.5 256.3,28.9 
	256.3,28.2 256.3,18.4 256.3,17.7 256.3,17.2 256.2,16.7 256.2,16.2 256.1,15.9 256,15.5 255.9,15.4 255.9,15.3 255.8,15.2 
	255.7,15.1 255.6,15 255.4,14.9 255.3,14.8 255.1,14.7 254.9,14.6 254.7,14.6 254.5,14.5 254.3,14.5 254,14.5 253.7,14.6 
	253.3,14.7 253,14.8 252.7,14 259.3,11.3 "/>
<polygon fill-rule="evenodd" clip-rule="evenodd" fill="#2B2A29" points="278.4,4.3 278.4,11.2 283.4,11.2 283.4,12.6 278.4,12.6 
	278.4,26.8 278.4,27.3 278.4,27.7 278.5,28.1 278.5,28.5 278.6,28.9 278.8,29.2 278.9,29.5 279.1,29.8 279.3,30 279.5,30.2 
	279.7,30.4 279.9,30.5 280.2,30.6 280.5,30.7 280.8,30.8 281.1,30.8 281.3,30.8 281.5,30.7 281.7,30.7 281.9,30.7 282.1,30.6 
	282.3,30.5 282.5,30.4 282.7,30.3 282.9,30.2 283.1,30 283.2,29.9 283.4,29.7 283.7,29.4 284.1,29 285,29 284.7,29.5 284.4,30 
	284.1,30.5 283.8,30.9 283.4,31.3 283.1,31.7 282.7,32 282.3,32.3 281.9,32.6 281.6,32.8 281.2,33 280.7,33.1 280.3,33.3 
	279.9,33.4 279.5,33.4 279,33.4 278.7,33.4 278.5,33.4 278.2,33.4 278,33.3 277.7,33.3 277.5,33.2 277.3,33.1 277,33 276.8,32.9 
	276.7,32.8 276.5,32.7 276.3,32.6 276.1,32.4 275.9,32.3 275.8,32.1 275.6,31.9 275.5,31.7 275.4,31.5 275.3,31.3 275.2,31 
	275.1,30.8 275,30.5 274.9,30.2 274.8,30 274.7,29.7 274.7,29.4 274.6,29 274.6,28.7 274.5,28 274.5,27.3 274.5,12.6 271.1,12.6 
	271.1,11.7 271.8,11.5 272.3,11.2 272.9,10.8 273.4,10.5 273.9,10.2 274.4,9.8 274.8,9.4 275.2,8.9 275.6,8.4 276,7.9 276.3,7.4 
	276.6,6.9 276.9,6.3 277.2,5.7 277.4,5 277.6,4.3 "/>
<polygon fill-rule="evenodd" clip-rule="evenodd" fill="#2B2A29" points="54.1,0.2 70.7,0.2 70.7,1 70.3,1 69.9,1.1 69.5,1.1 
	69.1,1.1 68.8,1.2 68.5,1.3 68.3,1.4 68,1.5 67.8,1.6 67.6,1.8 67.5,1.9 67.4,2.1 67.3,2.3 67.2,2.4 67.2,2.7 67.2,2.9 67.2,3.1 
	67.2,3.4 67.3,3.6 67.5,3.9 67.6,4.2 67.8,4.6 68.1,4.9 68.3,5.3 74.4,13.1 81.7,4.9 81.9,4.6 82.1,4.4 82.3,4.1 82.4,3.8 82.5,3.6 
	82.6,3.4 82.6,3.1 82.6,2.9 82.6,2.7 82.6,2.5 82.5,2.3 82.4,2.1 82.3,1.9 82.1,1.8 82,1.6 81.8,1.5 81.5,1.4 81.3,1.3 81,1.2 
	80.6,1.1 80.3,1.1 79.9,1.1 79.5,1 79.1,1 79.1,0.2 91.4,0.2 91.4,1 90.9,1 90.5,1.1 90.1,1.1 89.7,1.2 89.4,1.2 89,1.3 88.7,1.4 
	88.4,1.5 88.2,1.6 87.9,1.8 87.6,2 87.4,2.1 87.1,2.3 86.9,2.5 86.7,2.7 86.4,2.9 86.2,3.2 85.8,3.6 85.3,4.1 84.7,4.7 84.4,5.1 
	84,5.4 83.6,5.9 83.2,6.3 82.8,6.7 82.4,7.2 81.9,7.7 81.4,8.3 75.7,14.9 83.7,25.2 84.6,26.4 85.5,27.5 86.2,28.5 87,29.3 87.6,30 
	88.1,30.6 88.6,31.1 89,31.4 89.2,31.6 89.4,31.7 89.5,31.8 89.7,31.9 89.9,32 90.2,32.1 90.4,32.2 90.6,32.3 91.1,32.4 91.6,32.5 
	92.1,32.6 92.6,32.6 92.6,33.4 76.9,33.4 76.9,32.6 77.3,32.6 77.7,32.5 78,32.5 78.4,32.5 78.7,32.4 78.9,32.3 79.2,32.2 
	79.4,32.1 79.7,32 79.8,31.9 80,31.7 80.1,31.6 80.2,31.4 80.3,31.2 80.3,31 80.3,30.8 80.3,30.5 80.2,30.2 80.1,29.9 80,29.6 
	79.8,29.3 79.6,28.9 79.3,28.5 79,28.1 78.4,27.4 72,19 63.5,28.5 63.2,28.8 63,29.1 62.8,29.5 62.6,29.8 62.5,30 62.4,30.3 
	62.3,30.5 62.3,30.7 62.3,31 62.4,31.2 62.4,31.4 62.5,31.5 62.6,31.7 62.8,31.8 63,32 63.2,32.1 63.4,32.2 63.6,32.3 63.9,32.4 
	64.2,32.5 64.6,32.5 64.9,32.5 65.3,32.6 65.7,32.6 65.7,33.4 54.1,33.4 54.1,32.6 54.5,32.6 54.9,32.5 55.3,32.4 55.7,32.3 
	56.1,32.1 56.6,31.9 57,31.7 57.4,31.5 57.8,31.2 58.3,30.8 58.7,30.4 59.2,30 59.7,29.5 60.3,29 60.9,28.3 61.4,27.7 70.7,17.3 
	62.5,6.7 61.8,5.9 61.2,5.1 60.6,4.3 60,3.7 59.4,3.1 59,2.7 58.7,2.5 58.5,2.3 58.3,2.2 58.1,2 57.7,1.8 57.2,1.6 56.8,1.4 
	56.3,1.3 55.8,1.2 55.2,1.1 54.7,1 54.1,1 "/>
<path fill-rule="evenodd" clip-rule="evenodd" fill="#2B2A29" d="M117,28.8v1.2l-0.4,0.4l-0.4,0.4l-0.4,0.4l-0.3,0.3l-0.4,0.3
	l-0.3,0.3l-0.3,0.2l-0.3,0.2l-0.3,0.2l-0.3,0.2l-0.3,0.2l-0.3,0.1l-0.3,0.1l-0.3,0l-0.3,0h-0.3h-0.4l-0.4,0l-0.3-0.1l-0.3-0.1
	l-0.3-0.1l-0.2-0.1l-0.1-0.1l-0.1-0.1l-0.1-0.1l-0.1-0.1l-0.2-0.3l-0.2-0.3l-0.1-0.3l-0.1-0.3l-0.1-0.4l0-0.4l0-0.4v-0.5l-0.6,0.5
	l-0.5,0.4l-0.5,0.4l-0.5,0.4l-0.5,0.3l-0.5,0.3l-0.5,0.3l-0.5,0.3l-0.5,0.2l-0.5,0.2l-0.5,0.1l-0.5,0.1l-0.5,0.1l-0.5,0.1l-0.5,0
	h-0.5H100h-0.2l-0.3,0l-0.3,0l-0.2,0l-0.3,0l-0.2-0.1L98.3,33L98,32.9l-0.2-0.1l-0.2-0.1l-0.2-0.1l-0.2-0.1L97,32.2l-0.2-0.1
	l-0.2-0.2l-0.2-0.2l-0.2-0.2l-0.2-0.2L96,31l-0.1-0.2l-0.1-0.2l-0.1-0.2l-0.1-0.2l-0.1-0.2l-0.1-0.2l0-0.2l-0.1-0.2l0-0.2l0-0.3
	l0-0.2l0-0.3l0-0.3l0-0.3l0-0.3l0.1-0.3l0.1-0.3l0.1-0.3l0.2-0.3l0.2-0.3l0.2-0.3l0.2-0.3l0.3-0.3l0.3-0.3l0.3-0.3l0.3-0.3l0.3-0.2
	l0.3-0.3l0.4-0.2l0.4-0.3l0.5-0.2l0.5-0.3l0.5-0.3l0.6-0.2l0.6-0.3l0.6-0.3l0.6-0.2l0.7-0.3l0.7-0.3L105,20l1.6-0.6l1.7-0.6l0-0.8
	v-0.7l0-0.7l0-0.6l0-0.5l-0.1-0.4l0-0.4l-0.1-0.3l0-0.3l-0.1-0.3l-0.1-0.3l-0.1-0.2l-0.2-0.2l-0.2-0.2l-0.2-0.2l-0.2-0.2l-0.3-0.2
	l-0.3-0.1l-0.3-0.1l-0.4-0.1l-0.4-0.1l-0.4,0l-0.5,0l-0.5,0l-0.4,0l-0.4,0l-0.4,0l-0.3,0.1l-0.3,0.1l-0.3,0.1l-0.3,0.2l-0.3,0.2
	l-0.3,0.2l-0.2,0.2l-0.1,0.1l-0.1,0.1l-0.1,0.1l-0.1,0.1l0,0.1l-0.1,0.1l0,0.1l0,0.2l0,0.3l0,0.3l0.1,0.8v0.6v0.2l0,0.2l0,0.2l0,0.2
	l-0.1,0.2l-0.1,0.2l-0.1,0.1l-0.1,0.1l-0.1,0.1l-0.1,0.1L99.2,18L99.1,18l-0.2,0l-0.2,0h-0.2l-0.2,0l-0.3,0h-0.2l-0.2,0l-0.2,0
	L97.1,18l-0.2-0.1l-0.2-0.1l-0.1-0.1l-0.1-0.1l-0.1-0.1l-0.1-0.2l-0.1-0.2l-0.1-0.2l0-0.2l0-0.2v-0.2V16l0-0.3l0.1-0.2l0-0.3
	l0.1-0.2l0.1-0.3l0.1-0.2l0.2-0.2l0.1-0.2l0.2-0.2l0.2-0.2l0.2-0.2l0.2-0.2l0.3-0.2l0.3-0.2l0.3-0.2l0.3-0.2l0.3-0.2l0.3-0.2
	l0.3-0.1l0.3-0.1l0.4-0.1l0.4-0.1l0.4-0.1l0.4-0.1l0.4-0.1l0.4-0.1l0.4-0.1l0.5,0l0.5,0l0.5,0l0.5,0l0.7,0l0.7,0l0.6,0l0.6,0.1
	l0.6,0.1l0.5,0.1l0.5,0.2l0.5,0.2l0.4,0.2l0.4,0.2l0.3,0.2l0.3,0.3l0.3,0.3l0.2,0.3l0.1,0.1l0.1,0.1l0.1,0.2l0.1,0.1l0.1,0.4
	l0.1,0.4l0.1,0.4l0.1,0.5l0,0.5l0,0.6l0,0.6v0.6v10.7v0.3l0,0.2l0,0.2l0,0.2l0,0.2l0,0.2l0.1,0.2l0.1,0.1l0.1,0.1l0.1,0.1l0.1,0.1
	l0.1,0.1l0.1,0.1l0.1,0l0.2,0h0.2h0.2l0.2,0l0.2,0l0.2-0.1l0.2,0l0.2-0.1l0.2-0.1l0.2-0.1l0.2-0.1l0.2-0.2l0.2-0.1l0.2-0.2l0.4-0.4
	L117,28.8L117,28.8z M108.3,28.5v-8.4l-1.3,0.5l-1.2,0.5l-1.1,0.5l-0.9,0.4l-0.9,0.4l-0.7,0.4l-0.3,0.2l-0.3,0.2l-0.3,0.2l-0.2,0.2
	l-0.2,0.1l-0.2,0.2l-0.2,0.2l-0.2,0.2l-0.2,0.2l-0.1,0.2l-0.1,0.2l-0.1,0.2l-0.1,0.2l-0.1,0.2l-0.1,0.2L99.4,26l0,0.2l0,0.2l0,0.3
	l0,0.2l0,0.4l0.1,0.4l0.1,0.4l0.1,0.3l0.1,0.3l0.2,0.3l0.2,0.3l0.2,0.3l0.3,0.2l0.3,0.2l0.3,0.2l0.3,0.1l0.3,0.1l0.3,0.1l0.4,0
	l0.4,0h0.3l0.3,0l0.3,0l0.3-0.1l0.3-0.1l0.3-0.1l0.3-0.1l0.3-0.1l0.3-0.1l0.3-0.1l0.3-0.2l0.4-0.2l0.3-0.2l0.3-0.2l0.3-0.3
	L108.3,28.5z"/>
<path fill-rule="evenodd" clip-rule="evenodd" fill="#2B2A29" d="M309,28.8v1.2l-0.4,0.4l-0.4,0.4l-0.4,0.4l-0.3,0.3l-0.4,0.3
	l-0.3,0.3l-0.3,0.2l-0.3,0.2l-0.3,0.2l-0.3,0.2l-0.3,0.2l-0.3,0.1l-0.3,0.1l-0.3,0l-0.3,0h-0.3H303l-0.4,0l-0.3-0.1l-0.3-0.1
	l-0.3-0.1l-0.2-0.1l-0.1-0.1l-0.1-0.1l-0.1-0.1l-0.1-0.1l-0.2-0.3l-0.2-0.3l-0.1-0.3l-0.1-0.3l-0.1-0.4l0-0.4l0-0.4v-0.5l-0.6,0.5
	l-0.5,0.4l-0.5,0.4l-0.5,0.4l-0.5,0.3l-0.5,0.3l-0.5,0.3l-0.5,0.3l-0.5,0.2l-0.5,0.2l-0.5,0.1l-0.5,0.1l-0.5,0.1l-0.5,0.1l-0.5,0
	h-0.5h-0.3h-0.2l-0.3,0l-0.3,0l-0.2,0l-0.3,0l-0.2-0.1l-0.2-0.1l-0.2-0.1l-0.2-0.1l-0.2-0.1l-0.2-0.1l-0.2-0.1l-0.2-0.2l-0.2-0.1
	l-0.2-0.2l-0.2-0.2l-0.2-0.2l-0.2-0.2l-0.2-0.2l-0.1-0.2l-0.1-0.2l-0.1-0.2l-0.1-0.2l-0.1-0.2l-0.1-0.2l0-0.2l-0.1-0.2l0-0.2l0-0.3
	l0-0.2l0-0.3l0-0.3l0-0.3l0-0.3l0.1-0.3l0.1-0.3l0.1-0.3l0.2-0.3l0.2-0.3l0.2-0.3l0.2-0.3l0.3-0.3l0.3-0.3l0.3-0.3l0.3-0.3l0.3-0.2
	l0.3-0.3l0.4-0.2l0.4-0.3l0.5-0.2l0.5-0.3l0.5-0.3l0.6-0.2l0.6-0.3l0.6-0.3l0.6-0.2l0.7-0.3l0.7-0.3L297,20l1.6-0.6l1.7-0.6l0-0.8
	v-0.7l0-0.7l0-0.6l0-0.5l-0.1-0.4l0-0.4l-0.1-0.3l0-0.3l-0.1-0.3l-0.1-0.3l-0.1-0.2l-0.2-0.2l-0.2-0.2l-0.2-0.2l-0.2-0.2l-0.3-0.2
	l-0.3-0.1l-0.3-0.1l-0.4-0.1l-0.4-0.1l-0.4,0l-0.5,0l-0.5,0l-0.4,0l-0.4,0l-0.4,0l-0.3,0.1l-0.3,0.1l-0.3,0.1l-0.3,0.2l-0.3,0.2
	l-0.3,0.2l-0.2,0.2l-0.1,0.1l-0.1,0.1l-0.1,0.1l-0.1,0.1l0,0.1l-0.1,0.1l0,0.1l0,0.2l0,0.3l0,0.3l0.1,0.8v0.6v0.2l0,0.2l0,0.2l0,0.2
	l-0.1,0.2l-0.1,0.2l-0.1,0.1l-0.1,0.1l-0.1,0.1l-0.1,0.1l-0.2,0.1L291,18l-0.2,0l-0.2,0h-0.2l-0.2,0l-0.3,0h-0.2l-0.2,0l-0.2,0
	L289,18l-0.2-0.1l-0.2-0.1l-0.1-0.1l-0.1-0.1l-0.1-0.1l-0.1-0.2l-0.1-0.2l-0.1-0.2l0-0.2l0-0.2v-0.2V16l0-0.3l0.1-0.2l0-0.3l0.1-0.2
	l0.1-0.3l0.1-0.2l0.2-0.2l0.1-0.2l0.2-0.2l0.2-0.2l0.2-0.2l0.2-0.2l0.3-0.2l0.3-0.2l0.3-0.2l0.3-0.2l0.3-0.2l0.3-0.2l0.3-0.1
	l0.3-0.1l0.4-0.1l0.4-0.1l0.4-0.1l0.4-0.1l0.4-0.1l0.4-0.1l0.4-0.1l0.5,0l0.5,0l0.5,0l0.5,0l0.7,0l0.7,0l0.6,0l0.6,0.1l0.6,0.1
	l0.5,0.1l0.5,0.2l0.5,0.2l0.4,0.2l0.4,0.2l0.3,0.2l0.3,0.3l0.3,0.3l0.2,0.3l0.1,0.1l0.1,0.1l0.1,0.2l0.1,0.1l0.1,0.4l0.1,0.4
	l0.1,0.4l0.1,0.5l0,0.5l0,0.6l0,0.6v0.6v10.7v0.3l0,0.2l0,0.2l0,0.2l0,0.2l0,0.2l0.1,0.2l0.1,0.1l0.1,0.1l0.1,0.1l0.1,0.1l0.1,0.1
	l0.1,0.1l0.1,0l0.2,0h0.2h0.2l0.2,0l0.2,0l0.2-0.1l0.2,0l0.2-0.1l0.2-0.1l0.2-0.1l0.2-0.1l0.2-0.2l0.2-0.1l0.2-0.2l0.4-0.4L309,28.8
	L309,28.8z M300.3,28.5v-8.4l-1.3,0.5l-1.2,0.5l-1.1,0.5l-0.9,0.4l-0.9,0.4l-0.7,0.4l-0.3,0.2l-0.3,0.2l-0.3,0.2l-0.2,0.2l-0.2,0.1
	l-0.2,0.2l-0.2,0.2l-0.2,0.2l-0.2,0.2l-0.1,0.2l-0.1,0.2l-0.1,0.2l-0.1,0.2l-0.1,0.2l-0.1,0.2l-0.1,0.2l0,0.2l0,0.2l0,0.3l0,0.2
	l0,0.4l0.1,0.4l0.1,0.4l0.1,0.3l0.1,0.3l0.2,0.3l0.2,0.3l0.2,0.3l0.3,0.2l0.3,0.2l0.3,0.2l0.3,0.1l0.3,0.1l0.3,0.1l0.4,0l0.4,0h0.3
	l0.3,0l0.3,0l0.3-0.1l0.3-0.1l0.3-0.1l0.3-0.1l0.3-0.1l0.3-0.1l0.3-0.1l0.3-0.2l0.4-0.2l0.3-0.2l0.3-0.2l0.3-0.3L300.3,28.5z"/>
<polygon fill-rule="evenodd" clip-rule="evenodd" fill="#2B2A29" points="126.9,0.3 126.9,28.3 126.9,28.9 126.9,29.5 127,30 
	127.1,30.5 127.1,30.7 127.1,30.9 127.2,31 127.3,31.2 127.4,31.3 127.4,31.5 127.5,31.6 127.6,31.7 127.8,31.9 128.1,32.1 
	128.3,32.2 128.6,32.3 128.9,32.4 129.3,32.5 129.7,32.6 130.1,32.6 130.1,33.4 119,33.4 119,32.6 119.7,32.6 120.2,32.5 
	120.5,32.5 120.7,32.4 120.9,32.4 121.1,32.3 121.3,32.2 121.5,32.2 121.7,32.1 121.8,32 121.9,31.9 122,31.8 122.1,31.6 
	122.2,31.5 122.4,31.2 122.5,30.9 122.6,30.6 122.7,30.2 122.8,29.7 122.8,29.3 122.8,28.8 122.8,28.3 122.8,8.4 122.8,7.8 
	122.8,7.4 122.8,7 122.8,6.7 122.8,6.3 122.8,5.9 122.8,5.6 122.7,5.4 122.7,5.2 122.6,5.1 122.6,4.9 122.5,4.7 122.4,4.6 
	122.3,4.4 122.2,4.3 122,4.1 121.9,4 121.7,3.9 121.5,3.8 121.4,3.7 121.2,3.6 121,3.6 120.8,3.6 120.6,3.6 120.3,3.6 120,3.6 
	119.7,3.7 119.4,3.8 119,3 126,0.3 "/>
<path fill-rule="evenodd" clip-rule="evenodd" fill="#2B2A29" d="M153.7,10.8v26.6v0.6l0,0.5l0.1,0.5l0,0.4l0.1,0.4l0.1,0.3l0.1,0.3
	l0.1,0.3l0.1,0.1l0.1,0.1l0.1,0.1l0.1,0.1l0.1,0.1l0.2,0.1l0.2,0.1l0.2,0.1l0.2,0l0.2,0.1l0.3,0l0.3,0l0.6,0l0.6,0v0.9h-11.9v-0.9
	h0.5l0.4,0h0.4h0.3l0.3,0l0.3,0l0.2,0l0.2,0l0.2-0.1l0.2-0.1l0.2-0.1l0.1-0.1l0.1-0.1l0.1-0.2l0.1-0.2l0.1-0.2l0.1-0.2l0.1-0.3
	l0.1-0.3l0.1-0.3l0-0.4l0-0.4l0-0.4v-0.5v-8.1l-0.5,0.5l-0.5,0.5l-0.4,0.4l-0.5,0.4l-0.4,0.4l-0.5,0.3l-0.5,0.3l-0.5,0.3l-0.5,0.2
	l-0.5,0.2l-0.5,0.2l-0.5,0.1l-0.5,0.1l-0.5,0.1l-0.5,0h-0.5h-0.4l-0.4,0l-0.4-0.1l-0.4-0.1l-0.4-0.1l-0.4-0.1l-0.4-0.1l-0.4-0.2
	l-0.4-0.2l-0.4-0.2l-0.3-0.2l-0.4-0.2l-0.3-0.3l-0.3-0.3l-0.3-0.3l-0.4-0.3l-0.3-0.3l-0.3-0.4l-0.3-0.4l-0.3-0.4l-0.3-0.4l-0.2-0.4
	l-0.2-0.5l-0.2-0.5l-0.2-0.5l-0.1-0.5l-0.1-0.5l-0.1-0.6l-0.1-0.6l0-0.6l0-0.6l0-0.6l0-0.6l0-0.6l0.1-0.6l0.1-0.6l0.1-0.6l0.2-0.6
	l0.2-0.6l0.2-0.5l0.2-0.5l0.3-0.5l0.3-0.5l0.3-0.5l0.3-0.5l0.4-0.5l0.4-0.4l0.4-0.4l0.4-0.4l0.4-0.4l0.5-0.3l0.5-0.3l0.5-0.3
	l0.5-0.3l0.5-0.2l0.5-0.2l0.5-0.2l0.5-0.2l0.5-0.1l0.5-0.1l0.6-0.1l0.6,0l0.6,0l0.6,0l0.4,0h0.3l0.4,0l0.4,0l0.3,0l0.3,0l0.3,0.1
	l0.3,0.1l0.3,0.1l0.3,0.1l0.3,0.1l0.3,0.1l0.3,0.1l0.3,0.2l0.3,0.2l0.3,0.2l0.4-0.1l0.4-0.1l0.3-0.2l0.4-0.2l0.3-0.2l0.3-0.2
	l0.3-0.2l0.3-0.2H153.7L153.7,10.8z M149.7,27.9V17.7v-0.4l0-0.5l-0.1-0.4l0-0.4l-0.1-0.4l-0.1-0.3l-0.1-0.3l-0.1-0.3l-0.1-0.2
	l-0.2-0.3l-0.2-0.2l-0.2-0.2l-0.3-0.2l-0.3-0.2l-0.3-0.2l-0.3-0.2l-0.3-0.2l-0.4-0.1l-0.4-0.1l-0.4-0.1l-0.4-0.1l-0.4,0l-0.4,0
	l-0.4,0l-0.4,0l-0.4,0l-0.4,0l-0.4,0.1l-0.4,0.1l-0.3,0.1l-0.3,0.1l-0.3,0.1L141,13l-0.3,0.2l-0.3,0.2l-0.3,0.2l-0.3,0.2l-0.3,0.3
	l-0.3,0.3l-0.2,0.3l-0.2,0.3l-0.2,0.3l-0.2,0.3l-0.2,0.4l-0.2,0.4l-0.1,0.4l-0.1,0.4l-0.1,0.4l-0.1,0.4l-0.1,0.4l-0.1,0.4l-0.1,0.4
	l0,0.5l0,0.5l0,0.5v0.5v0.5l0,0.4l0,0.5l0,0.4l0.1,0.4l0.1,0.4l0.1,0.4l0.1,0.4l0.1,0.4l0.1,0.4l0.2,0.3l0.2,0.4l0.2,0.3l0.2,0.3
	l0.2,0.3l0.3,0.3l0.3,0.3l0.2,0.3l0.3,0.3l0.3,0.2l0.3,0.2l0.3,0.2l0.3,0.2l0.3,0.2l0.3,0.1l0.4,0.1l0.4,0.1l0.4,0.1l0.4,0l0.4,0.1
	l0.4,0h0.4h0.4l0.4,0l0.4,0l0.3,0l0.3-0.1l0.3-0.1l0.3-0.1l0.3-0.1l0.3-0.1l0.3-0.1l0.3-0.2l0.3-0.2l0.3-0.2l0.3-0.2l0.3-0.2
	l0.3-0.3L149.7,27.9z"/>
<polygon fill-rule="evenodd" clip-rule="evenodd" fill="#2B2A29" points="46.9,0.1 33.6,0.1 0.1,33.4 12.9,33.4 "/>
<polygon fill-rule="evenodd" clip-rule="evenodd" fill="#E31E24" points="15.6,15.3 31.2,0.1 0,0.1 "/>
<polygon fill-rule="evenodd" clip-rule="evenodd" fill="#E31E24" points="31.3,18.3 46.9,33.4 15.6,33.4 "/>
<path fill-rule="evenodd" clip-rule="evenodd" fill="#1C1B17" d="M219.5,57.8c1.3,0.3,2.2,0.7,2.9,1.3c0.9,0.9,1.3,1.9,1.3,3.2
	c0,0.9-0.3,1.9-0.9,2.7c-0.6,0.9-1.4,1.5-2.4,1.9c-1,0.4-2.5,0.6-4.6,0.6h-8.7V67h0.7c0.8,0,1.3-0.3,1.6-0.8c0.2-0.3,0.3-1,0.3-2.1
	V51.9c0-1.2-0.1-1.9-0.4-2.2c-0.4-0.4-0.9-0.6-1.6-0.6h-0.7v-0.5h8c1.5,0,2.7,0.1,3.6,0.3c1.4,0.3,2.4,0.9,3.1,1.8
	c0.7,0.9,1.1,1.8,1.1,2.9c0,0.9-0.3,1.8-0.8,2.6C221.5,56.9,220.6,57.4,219.5,57.8L219.5,57.8z M212.4,57c0.3,0.1,0.7,0.1,1.1,0.1
	c0.4,0,0.9,0,1.4,0c1.3,0,2.3-0.1,3-0.4c0.7-0.3,1.2-0.7,1.5-1.3c0.3-0.6,0.5-1.3,0.5-2c0-1.1-0.4-2-1.3-2.8
	c-0.9-0.8-2.2-1.2-3.8-1.2c-0.9,0-1.7,0.1-2.4,0.3V57L212.4,57z M212.4,66.1c1.1,0.3,2.1,0.4,3.1,0.4c1.6,0,2.9-0.4,3.8-1.1
	c0.9-0.8,1.3-1.7,1.3-2.8c0-0.7-0.2-1.4-0.6-2.1c-0.4-0.7-1-1.2-1.9-1.6c-0.9-0.4-2-0.6-3.3-0.6c-0.6,0-1,0-1.4,0
	c-0.4,0-0.7,0.1-1,0.1V66.1z"/>
<path fill-rule="evenodd" clip-rule="evenodd" fill="#1C1B17" d="M229.3,47.6c0.4,0,0.7,0.1,1,0.4c0.3,0.3,0.4,0.6,0.4,1
	c0,0.4-0.1,0.7-0.4,1c-0.3,0.3-0.6,0.4-1,0.4c-0.4,0-0.7-0.1-1-0.4c-0.3-0.3-0.4-0.6-0.4-1c0-0.4,0.1-0.7,0.4-1
	C228.6,47.7,228.9,47.6,229.3,47.6L229.3,47.6z M230.4,54.3v10.3c0,0.8,0.1,1.3,0.2,1.6c0.1,0.3,0.3,0.5,0.5,0.6
	c0.2,0.1,0.6,0.2,1.2,0.2v0.5h-6V67c0.6,0,1-0.1,1.2-0.2c0.2-0.1,0.4-0.3,0.5-0.6c0.1-0.3,0.2-0.8,0.2-1.6v-5c0-1.4,0-2.3-0.1-2.7
	c-0.1-0.3-0.2-0.5-0.3-0.6c-0.1-0.1-0.3-0.2-0.6-0.2c-0.3,0-0.6,0.1-0.9,0.2l-0.2-0.5l3.7-1.6H230.4z"/>
<path fill-rule="evenodd" clip-rule="evenodd" fill="#1C1B17" d="M244.7,63.5l-0.1,4h-11V67l8.3-11.4h-4.1c-0.9,0-1.4,0.1-1.7,0.2
	c-0.3,0.1-0.5,0.3-0.7,0.7c-0.2,0.5-0.4,1-0.4,1.7h-0.6l0.1-3.5h10.5v0.5l-8.4,11.4h4.5c0.9,0,1.6-0.1,1.9-0.2
	c0.3-0.2,0.6-0.4,0.8-0.9c0.1-0.3,0.3-0.9,0.4-1.9H244.7z"/>
<path fill-rule="evenodd" clip-rule="evenodd" fill="#1C1B17" d="M252.6,54.7h5.8v0.5H258c-0.4,0-0.6,0.1-0.8,0.3
	c-0.2,0.2-0.3,0.4-0.3,0.7c0,0.3,0.1,0.7,0.3,1.2l2.9,7.1l2.9-7.3c0.2-0.5,0.3-0.9,0.3-1.2c0-0.1,0-0.2-0.1-0.3
	c-0.1-0.1-0.2-0.2-0.4-0.3c-0.2-0.1-0.5-0.1-0.9-0.1v-0.5h4v0.5c-0.5,0-0.8,0.1-1,0.3c-0.3,0.3-0.6,0.8-0.9,1.4l-4.4,11h-0.6
	l-4.4-10.8c-0.2-0.5-0.4-0.9-0.6-1.1c-0.2-0.2-0.4-0.4-0.7-0.6c-0.2-0.1-0.5-0.2-0.9-0.2V54.7z"/>
<path fill-rule="evenodd" clip-rule="evenodd" fill="#1C1B17" d="M274.1,65.6c-1.3,1-2.1,1.6-2.4,1.8c-0.5,0.2-1,0.4-1.6,0.4
	c-0.9,0-1.6-0.3-2.1-0.9c-0.6-0.6-0.8-1.4-0.8-2.4c0-0.6,0.1-1.2,0.4-1.6c0.4-0.6,1-1.2,1.9-1.8c0.9-0.6,2.5-1.2,4.6-2v-0.5
	c0-1.3-0.2-2.1-0.6-2.6c-0.4-0.5-1-0.7-1.7-0.7c-0.6,0-1,0.2-1.4,0.5c-0.3,0.3-0.5,0.7-0.5,1.1l0,0.8c0,0.4-0.1,0.8-0.3,1
	c-0.2,0.2-0.5,0.3-0.8,0.3c-0.3,0-0.6-0.1-0.8-0.4c-0.2-0.2-0.3-0.6-0.3-1c0-0.8,0.4-1.5,1.2-2.2c0.8-0.7,1.9-1,3.4-1
	c1.1,0,2,0.2,2.7,0.6c0.5,0.3,0.9,0.7,1.2,1.4c0.2,0.4,0.2,1.2,0.2,2.5V63c0,1.2,0,2,0.1,2.2c0,0.3,0.1,0.5,0.2,0.6
	c0.1,0.1,0.2,0.1,0.4,0.1c0.1,0,0.3,0,0.4-0.1c0.2-0.1,0.6-0.5,1.1-1v0.8c-1,1.4-2,2.1-2.9,2.1c-0.4,0-0.8-0.2-1.1-0.5
	C274.3,66.9,274.2,66.4,274.1,65.6L274.1,65.6z M274.1,64.7v-4.9c-1.4,0.6-2.3,1-2.7,1.2c-0.7,0.4-1.2,0.8-1.5,1.3
	c-0.3,0.4-0.5,0.9-0.5,1.5c0,0.7,0.2,1.2,0.6,1.7c0.4,0.4,0.8,0.7,1.4,0.7C272.1,66.1,273,65.7,274.1,64.7z"/>
<path fill-rule="evenodd" clip-rule="evenodd" fill="#1C1B17" d="M283.1,54.3v2.9c1-1.9,2.1-2.9,3.2-2.9c0.5,0,0.9,0.2,1.2,0.5
	c0.3,0.3,0.5,0.7,0.5,1.1c0,0.4-0.1,0.7-0.3,0.9c-0.2,0.3-0.5,0.4-0.8,0.4c-0.3,0-0.7-0.2-1.1-0.5c-0.4-0.3-0.7-0.5-0.9-0.5
	c-0.2,0-0.3,0.1-0.5,0.3c-0.4,0.4-0.8,1-1.3,1.9v6.1c0,0.7,0.1,1.3,0.3,1.6c0.1,0.3,0.3,0.5,0.6,0.6c0.3,0.2,0.7,0.2,1.3,0.2v0.5
	h-6.4V67c0.6,0,1.1-0.1,1.4-0.3c0.2-0.2,0.4-0.4,0.5-0.7c0-0.2,0.1-0.6,0.1-1.4v-5c0-1.5,0-2.4-0.1-2.7c-0.1-0.3-0.2-0.5-0.3-0.6
	c-0.2-0.1-0.4-0.2-0.6-0.2c-0.3,0-0.6,0.1-1,0.2l-0.1-0.5l3.8-1.6H283.1z"/>
<path fill-rule="evenodd" clip-rule="evenodd" fill="#1C1B17" d="M293.1,54.3v10.3c0,0.8,0.1,1.3,0.2,1.6c0.1,0.3,0.3,0.5,0.5,0.6
	c0.2,0.1,0.6,0.2,1.2,0.2v0.5h-6V67c0.6,0,1-0.1,1.2-0.2c0.2-0.1,0.4-0.3,0.5-0.6c0.1-0.3,0.2-0.8,0.2-1.6v-5c0-1.4,0-2.3-0.1-2.7
	c-0.1-0.3-0.2-0.5-0.3-0.6c-0.1-0.1-0.3-0.2-0.6-0.2c-0.3,0-0.6,0.1-0.9,0.2l-0.2-0.5l3.8-1.6H293.1z"/>
<path fill-rule="evenodd" clip-rule="evenodd" fill="#1C1B17" d="M307.5,54.3v16.5c0,0.8,0.1,1.3,0.2,1.6c0.1,0.2,0.3,0.4,0.5,0.5
	c0.2,0.1,0.7,0.2,1.3,0.2v0.5h-6.3v-0.5h0.3c0.5,0,0.9-0.1,1.2-0.2c0.2-0.1,0.3-0.3,0.4-0.5c0.1-0.3,0.2-0.8,0.2-1.5v-5.6
	c-0.8,1-1.5,1.7-2.2,2.1c-0.6,0.4-1.3,0.6-1.9,0.6c-1.2,0-2.3-0.6-3.2-1.7c-0.9-1.1-1.4-2.6-1.4-4.5c0-2.2,0.6-3.9,1.9-5.3
	c1.2-1.4,2.8-2,4.5-2c0.5,0,1,0.1,1.4,0.2c0.4,0.1,0.8,0.4,1.2,0.7c0.5-0.3,1-0.6,1.5-0.9H307.5L307.5,54.3z M305.2,64.3v-6
	c0-0.7-0.1-1.2-0.3-1.6c-0.2-0.4-0.5-0.7-0.9-1c-0.5-0.3-1-0.4-1.5-0.4c-1,0-1.9,0.4-2.6,1.3c-0.7,0.9-1.1,2.2-1.1,4
	c0,1.7,0.4,3,1.1,3.9c0.7,0.9,1.6,1.3,2.7,1.3c0.5,0,1-0.1,1.4-0.4C304.4,65.3,304.8,64.9,305.2,64.3z"/>
<path fill-rule="evenodd" clip-rule="evenodd" fill="#1C1B17" d="M314.4,62.5h-0.5l-1.2-11.3c-0.1-0.5-0.1-0.9-0.1-1.1
	c0-0.6,0.2-1.1,0.5-1.4c0.3-0.4,0.7-0.5,1.1-0.5c0.4,0,0.8,0.2,1.1,0.5c0.3,0.4,0.4,0.9,0.4,1.6c0,0.2,0,0.5-0.1,0.9L314.4,62.5
	L314.4,62.5z M314.2,64.8c0.4,0,0.8,0.2,1.1,0.5c0.3,0.3,0.4,0.7,0.4,1.1c0,0.4-0.1,0.8-0.4,1.1c-0.3,0.3-0.6,0.5-1.1,0.5
	c-0.4,0-0.8-0.2-1.1-0.5c-0.3-0.3-0.4-0.7-0.4-1.1c0-0.4,0.1-0.8,0.4-1.1C313.4,64.9,313.8,64.8,314.2,64.8z"/>
<path fill-rule="evenodd" clip-rule="evenodd" fill="#FF0000" d="M228.9,51.5c1.3,0,2.3-1.1,2.3-2.5c0-1.4-1-2.5-2.3-2.5
	s-2.3,1.1-2.3,2.5C226.6,50.4,227.6,51.5,228.9,51.5z"/>
<path fill-rule="evenodd" clip-rule="evenodd" fill="#FF0000" d="M314,68.4c1.2,0,2.1-1,2.1-2.2c0-1.2-0.9-2.2-2.1-2.2
	c-1.2,0-2.1,1-2.1,2.2C311.9,67.5,312.9,68.4,314,68.4z"/>
</svg>
